<svg xmlns="http://www.w3.org/2000/svg" width="542.762" height="422.045" viewBox="0 0 542.762 422.045">
  <g id="Group_72" data-name="Group 72" transform="translate(87.65 -46.859)">
    <path id="Path_1719" data-name="Path 1719" d="M128.965,83.028c38.056-5.441,77.239-1.693,114.97-9.161,39.465-7.815,75.407-27.483,113.448-40.545s81.975-18.933,117.268.208c21.607,11.729,37.506,31.592,49.98,52.607a276.076,276.076,0,0,1,38.69,136.416c.352,23.791-2.452,47.748-9.866,70.4-24.778,75.7-99.776,128.1-178.862,144.259-86.852,17.753-181.286-3.886-251.421-57.34C63.452,334.277,4.4,252.98,24.65,178.928,38.082,129.68,71.909,91.19,128.965,83.028Z" transform="translate(-108.239 25.6)" fill="#ffc300" opacity="0.18"/>
    <path id="Path_1694" data-name="Path 1694" d="M707.381,328.322H293.718a5.948,5.948,0,0,0-5.942,5.943v280.31a5.948,5.948,0,0,0,5.942,5.943H707.381a5.938,5.938,0,0,0,4.519-2.086,1.39,1.39,0,0,0,.129-.163,5.567,5.567,0,0,0,.852-1.438,5.8,5.8,0,0,0,.45-2.256V334.265A5.949,5.949,0,0,0,707.381,328.322Zm4.253,286.252a4.207,4.207,0,0,1-.7,2.331,4.393,4.393,0,0,1-1.608,1.445,4.215,4.215,0,0,1-1.942.47H293.718a4.251,4.251,0,0,1-4.246-4.246V334.265a4.251,4.251,0,0,1,4.246-4.246H707.381a4.252,4.252,0,0,1,4.253,4.246Z" transform="translate(-287.775 -201.971)" fill="#3f3d56"/>
    <rect id="Rectangle_188" data-name="Rectangle 188" width="423.856" height="1.699" transform="translate(0.847 150.168)" fill="#3f3d56"/>
    <circle id="Ellipse_158" data-name="Ellipse 158" cx="5.096" cy="5.096" r="5.096" transform="translate(10.19 133.995)" fill="#3f3d56"/>
    <circle id="Ellipse_159" data-name="Ellipse 159" cx="5.096" cy="5.096" r="5.096" transform="translate(24.843 133.995)" fill="#3f3d56"/>
    <circle id="Ellipse_160" data-name="Ellipse 160" cx="5.096" cy="5.096" r="5.096" transform="translate(39.495 133.995)" fill="#3f3d56"/>
    <path id="Path_1695" data-name="Path 1695" d="M561.621,558.633c-5.1-3.318-7.632-11.029-6.383-18.081s5.952-13.126,11.591-15.745a18.162,18.162,0,0,1,17.192,1.222c5.17,3.162,12.483,4.893,14.938,11.219,1.887,4.861-.506,14.732-3.046,19.454-2.195,4.081-6.366,5.948-10.285,6.759a30.9,30.9,0,0,1-24.99-5.766Z" transform="translate(-372.865 -264.043)" fill="#2f2e41"/>
    <path id="Path_1696" data-name="Path 1696" d="M264.938,485.438l-4.075,7.026-.538.927-.784,1.363H247.526l.811-1.363,2.1-3.537,4.893-8.26,5.54,2.215Z" transform="translate(-78.84 -153.394)" fill="#ffb8b8"/>
    <path id="Path_1697" data-name="Path 1697" d="M532.828,629.086l-2.194-1.363-.273-.17,13.773-25.1a9.358,9.358,0,0,1,5.622-4.511,9.25,9.25,0,0,1,4.62-.17,9.1,9.1,0,0,1,2.549.954,8.91,8.91,0,0,1,.947.6,9.1,9.1,0,0,1,2.794,3.148,9.416,9.416,0,0,1-.286,9.507l-5.309,8.484-4.539,7.258-.852,1.363H532.828Z" transform="translate(-365.042 -287.726)" fill="#2f2e41"/>
    <circle id="Ellipse_161" data-name="Ellipse 161" cx="16.738" cy="16.738" r="16.738" transform="translate(186.434 270.021)" fill="#ffb8b8"/>
    <path id="Path_1698" data-name="Path 1698" d="M592.609,628.133H554.985l.17-.484q-.143-.44-.266-.879c-.089-.307-.164-.62-.232-.927a20.576,20.576,0,0,1,.007-8.655c2.079-10.209,10.372-18.5,10.372-18.5.143-.109.286-.211.429-.314a18.934,18.934,0,0,1,3.987-2.235c6.161-2.556,12.621-1.527,16.962-.2a33.852,33.852,0,0,1,4.423,1.683c.5.238.777.388.777.388l.429,13.091.518,15.674Z" transform="translate(-372.635 -286.773)" fill="#ffc300"/>
    <path id="Path_1699" data-name="Path 1699" d="M625.071,625.989l-2.876-14.625-2.9-14.747a3.08,3.08,0,0,0-2.488-2.433l-6.079-1.049-5.656-.975a3.039,3.039,0,0,0-2.937,1.125,3.005,3.005,0,0,0-.661,1.867,3.08,3.08,0,0,0,.252,1.22c2.951,6.883,3.005,17.78,2.256,29.618-.034.45-.061.906-.1,1.363h21.46Z" transform="translate(-387.691 -285.992)" fill="#2f2e41"/>
    <path id="Path_1700" data-name="Path 1700" d="M563.91,595.783a3.085,3.085,0,0,0-4.873-1.69l-2.61,2.372L545.742,606.2a2.961,2.961,0,0,0-.763,1.084c-1.206,2.883-3.557,8.573-6.29,15.6q-.664,1.717-1.37,3.537c-.164.45-.341.906-.518,1.363h17.61c.143-.457.286-.913.429-1.363.784-2.474,1.547-4.9,2.283-7.258,2.153-6.849,4.1-13.071,5.6-17.991q.623-2.044,1.138-3.775a3.085,3.085,0,0,0,.055-1.608Z" transform="translate(-367.093 -286.419)" fill="#2f2e41"/>
    <path id="Path_1701" data-name="Path 1701" d="M347.253,493.155h1.138l-.157-.382-.416-.981-6.413-15.218-.981.593-7.878,4.764,4.041,9.861.559,1.363h10.106Z" transform="translate(-105.92 -151.795)" fill="#ffb8b8"/>
    <path id="Path_1702" data-name="Path 1702" d="M623.845,598.95a9.419,9.419,0,0,0-11.8-5.568,8.461,8.461,0,0,0-.866.341,9.3,9.3,0,0,0-3.966,3.36,9,9,0,0,0-.975,1.888,9.365,9.365,0,0,0,.211,7.2l1.97,4.389,7.046,15.674.613,1.363h14.264l.981-.382,2.549-.981.354-.136Z" transform="translate(-389.013 -286.24)" fill="#2f2e41"/>
    <path id="Path_1703" data-name="Path 1703" d="M601.39,530.975a2.769,2.769,0,0,0,3.15-1.2,3.987,3.987,0,0,0,.23-3.505,7.316,7.316,0,0,0-2.177-2.872,8.455,8.455,0,0,0-3.828-1.982,5.084,5.084,0,0,0-4.125.907,3.664,3.664,0,0,0-1.244,3.9,5.4,5.4,0,0,0,2.78,2.726,18.464,18.464,0,0,0,7.522,2.139Z" transform="translate(-385.072 -263.44)" fill="#2f2e41"/>
    <path id="Path_1704" data-name="Path 1704" d="M595.493,554.012c-2.691.371-2.345-1-3.423-3.492s-2.52-5.453-5.225-5.706c-2.216-.207-4.043,1.565-5.838,2.881-3.2,2.345-7.514,3.493-11.224,2.086s-6.288-5.828-4.88-9.538a8.139,8.139,0,0,1,4.707-4.45,16.375,16.375,0,0,1,6.558-.911,33.833,33.833,0,0,1,14.219,3.64c3.048,1.549,6.015,3.764,7.171,6.981s1.917,7.738-1.389,8.608Z" transform="translate(-375.919 -267.752)" fill="#2f2e41"/>
    <path id="Path_1705" data-name="Path 1705" d="M602.562,518.556c-1.33-2.315-.232-5.492,1.944-7.039a9.535,9.535,0,0,1,7.693-1.078,15.106,15.106,0,0,1,10.836,10.5c1.1,4.049.447,8.4,1.38,12.489a16.389,16.389,0,0,0,20.6,12.079c2.8-.821,5.636-2.817,5.911-5.717a16.028,16.028,0,0,1-9.492,16.049c-3.6,1.5-7.619,1.6-11.521,1.5a20.617,20.617,0,0,1-7.488-1.2,13.4,13.4,0,0,1-7.042-7.635,21.214,21.214,0,0,1-.937-10.519c.384-2.745,1.147-5.436,1.361-8.2a11.381,11.381,0,0,0-1.9-7.9c-1.7-2.187-4.958-3.3-7.381-1.956a17.853,17.853,0,0,1-2.817,1.776c-1.058.349-2.557-.265-2.461-1.375Z" transform="translate(-387.619 -259.869)" fill="#2f2e41"/>
    <path id="Path_1706" data-name="Path 1706" d="M770.781,622.19l.129-1.363,3.844-39.99a24.476,24.476,0,0,1,4.041-2.569c7.912-3.987,15.545-2.079,19.674-.429a21.526,21.526,0,0,1,3.162,1.547l2.249,41.441.075,1.363Z" transform="translate(-441.618 -280.83)" fill="#ffc300"/>
    <circle id="Ellipse_162" data-name="Ellipse 162" cx="16.738" cy="16.738" r="16.738" transform="translate(330.425 255.888)" fill="#ffb8b8"/>
    <path id="Path_1707" data-name="Path 1707" d="M800.786,540.656a9.111,9.111,0,0,0-6.914-15.377c-2.314.077-4.5,1.025-6.7,1.72a22.172,22.172,0,0,1-10.416.938,13.909,13.909,0,0,1-8.871-5.238,10.193,10.193,0,0,1-1.254-10c1.689-3.7,5.634-5.733,9.346-7.387a17.079,17.079,0,0,1,4.745-1.559,6.085,6.085,0,0,1,4.72,1.19c1.043.9,1.654,2.245,2.789,3.023,1.278.875,2.937.852,4.478,1.006a17.177,17.177,0,0,1,8.319,31.035Z" transform="translate(-440.043 -257.823)" fill="#2f2e41"/>
    <path id="Path_1708" data-name="Path 1708" d="M770.253,585.651l-2.494-6.924-.156-.432a1.434,1.434,0,0,0-2.144-.706l-2.832,1.888s-18.162,0-19.62,10.9c-.02.17-.048.361-.068.566a.106.106,0,0,1-.007.027c-.184.716-3.612,13.964-6.556,30.319-.082.45-.163.906-.245,1.363H775.6C776.881,606.219,776.162,590.943,770.253,585.651Z" transform="translate(-430.582 -281.289)" fill="#2f2e41"/>
    <path id="Path_1709" data-name="Path 1709" d="M837.319,621.287c-2.153-16.778-5.234-30.347-5.234-30.347-.027-.2-.055-.4-.075-.566-1.451-10.9-19.613-10.9-19.613-10.9l-2.83-1.887a1.434,1.434,0,0,0-2.145.708l-2.651,7.353c-5.909,5.292-6.627,20.568-5.343,37H837.49C837.435,622.193,837.374,621.737,837.319,621.287Z" transform="translate(-450.571 -281.29)" fill="#2f2e41"/>
    <path id="Path_1710" data-name="Path 1710" d="M379.124,585.428l-4.048,38.2-.143,1.363H363.981c.129-.443.259-.9.4-1.363,3.108-10.659,7.34-26.217,6.883-30.34-.715-6.433,4.294-8.58,4.294-8.58l.313.061Z" transform="translate(-312.048 -283.635)"/>
    <circle id="Ellipse_163" data-name="Ellipse 163" cx="16.738" cy="16.738" r="16.738" transform="translate(68 256.524)" fill="#a0616a"/>
    <path id="Path_1711" data-name="Path 1711" d="M421.88,614.262a27.444,27.444,0,0,0-2.065,4.879c-.2.6-.388,1.227-.566,1.867-.129.443-.245.9-.361,1.363H374.741c.062-.45.116-.906.177-1.363,2.256-17.821,4.082-35.908,4.375-38.858.027-.279.041-.423.041-.423,26.455-13.943,45.762,4.293,45.762,4.293s.027.129.068.382C425.587,588.952,427.74,603.835,421.88,614.262Z" transform="translate(-315.475 -281.012)" fill="#ffbc00"/>
    <path id="Path_1712" data-name="Path 1712" d="M439.505,623.758l-2.944-6.311.715-25.024,7.578-1.4.266-.048a20.067,20.067,0,0,1,8.6,10.031c1.472,3.68,4.273,14.747,6.638,24.622.109.457.218.913.327,1.363H441.011l-.634-1.363Z" transform="translate(-335.165 -285.629)"/>
    <path id="Path_1713" data-name="Path 1713" d="M431.5,478.822H334.711a7.84,7.84,0,0,0-7.83,7.83v96.785a7.84,7.84,0,0,0,7.83,7.83H431.5a7.835,7.835,0,0,0,7.83-7.83V486.652a7.835,7.835,0,0,0-7.83-7.83Zm6.467,104.615A6.473,6.473,0,0,1,431.5,589.9H334.711a6.477,6.477,0,0,1-6.467-6.467V486.652a6.477,6.477,0,0,1,6.467-6.467H431.5a6.473,6.473,0,0,1,6.467,6.467Zm-74.7,6.467-.143,1.363h40.528c.116-.463.232-.92.361-1.363Z" transform="translate(-300.231 -249.908)" fill="#3f3d56"/>
    <path id="Path_1714" data-name="Path 1714" d="M622.106,478.822H525.321a7.84,7.84,0,0,0-7.83,7.83v96.785a7.84,7.84,0,0,0,7.83,7.83h96.785a7.835,7.835,0,0,0,7.83-7.83V486.652a7.835,7.835,0,0,0-7.83-7.83Zm6.467,104.615a6.473,6.473,0,0,1-6.467,6.467H525.321a6.477,6.477,0,0,1-6.468-6.467V486.652a6.477,6.477,0,0,1,6.468-6.467h96.785a6.473,6.473,0,0,1,6.467,6.467ZM543.2,589.9q.123.44.266.879l-.17.484h33.842c.034-.457.062-.913.1-1.363Z" transform="translate(-360.942 -249.908)" fill="#3f3d56"/>
    <path id="Path_1715" data-name="Path 1715" d="M812.726,478.822H715.941a7.835,7.835,0,0,0-7.83,7.83v96.785a7.835,7.835,0,0,0,7.83,7.83h96.785a7.84,7.84,0,0,0,7.83-7.83V486.652a7.84,7.84,0,0,0-7.83-7.83Zm6.467,104.615a6.477,6.477,0,0,1-6.467,6.467H715.941a6.473,6.473,0,0,1-6.467-6.467V486.652a6.473,6.473,0,0,1,6.467-6.467h96.785a6.477,6.477,0,0,1,6.467,6.467Zm-52.42,6.467c-.034.45-.068.906-.1,1.363h29.365c.055-.45.116-.906.17-1.363Z" transform="translate(-421.657 -249.908)" fill="#3f3d56"/>
    <path id="Path_1716" data-name="Path 1716" d="M657.339,696.726H432.448a5.452,5.452,0,0,1,0-10.9H657.339a5.452,5.452,0,0,1,0,10.9Z" transform="translate(-332.119 -315.84)" fill="#ccc"/>
    <path id="Path_1717" data-name="Path 1717" d="M623.764,431.726H524.948a5.452,5.452,0,0,1,0-10.9h98.816a5.452,5.452,0,0,1,0,10.9Z" transform="translate(-361.581 -231.434)" fill="#ffbc00"/>
    <path id="Path_1718" data-name="Path 1718" d="M409.863,547.548a3.307,3.307,0,0,0,4.325.277,29.391,29.391,0,0,0,9.458-11c2.348-5.087,2.61-11.33-.221-16.165-2.394-4.087-6.62-6.725-10.833-8.891a19.268,19.268,0,0,0-5.23-2.016,7.453,7.453,0,0,0-5.419.874,4.68,4.68,0,0,0-2.113,4.832,17.615,17.615,0,0,0-7.518-5.047,9.723,9.723,0,0,0-5.742-.416c-2.673.758-4.625,3.133-5.692,5.7a11.4,11.4,0,0,0-.86,6.218,7.6,7.6,0,0,0,3.319,5.2c2.21,1.367,5.03,1.269,7.568.71s5-1.53,7.583-1.776,5.469.4,7.043,2.467a10.752,10.752,0,0,1,1.643,5.172l1.295,9.431a11.5,11.5,0,0,0,1.029,3.941,2.272,2.272,0,0,0,.367.489Z" transform="translate(-317.119 -259.703)" fill="#2f2e41"/>
  </g>
</svg>
