<svg xmlns="http://www.w3.org/2000/svg" width="28.619" height="28.619" viewBox="0 0 28.619 28.619">
  <path id="Icon_awesome-phone-alt" data-name="Icon awesome-phone-alt" d="M27.8,20.224l-6.261-2.683a1.342,1.342,0,0,0-1.565.386L17.2,21.314a20.719,20.719,0,0,1-9.9-9.9l3.387-2.773a1.338,1.338,0,0,0,.386-1.565L8.39.811A1.35,1.35,0,0,0,6.853.034L1.04,1.376A1.342,1.342,0,0,0,0,2.683,25.934,25.934,0,0,0,25.936,28.62a1.342,1.342,0,0,0,1.308-1.04l1.342-5.813A1.358,1.358,0,0,0,27.8,20.224Z" transform="translate(0 0)" fill="#fff"/>
</svg>
