<svg xmlns="http://www.w3.org/2000/svg" width="53" height="49" viewBox="0 0 53 49">
  <g id="linkedin" transform="translate(-4 -0.023)">
    <rect id="Rectangle_19" data-name="Rectangle 19" width="53" height="49" rx="10" transform="translate(4 0.023)" fill="#fff"/>
    <path id="Icon_awesome-linkedin-in" data-name="Icon awesome-linkedin-in" d="M5.53,24.7H.408V8.211H5.53ZM2.966,5.961A2.98,2.98,0,1,1,5.932,2.967,2.991,2.991,0,0,1,2.966,5.961ZM24.7,24.7H19.588V16.676c0-1.913-.039-4.367-2.663-4.367-2.663,0-3.071,2.079-3.071,4.23V24.7H8.738V8.211H13.65v2.25h.072A5.382,5.382,0,0,1,18.568,7.8c5.184,0,6.136,3.413,6.136,7.847V24.7Z" transform="translate(18 12.023)"/>
  </g>
</svg>
