<svg xmlns="http://www.w3.org/2000/svg" width="81.08" height="100.105" viewBox="0 0 81.08 100.105">
  <g id="Group_91" data-name="Group 91" transform="translate(-218.979 -873.448)">
    <path id="Path_1310" data-name="Path 1310" d="M120.654,172.868a65.408,65.408,0,0,1,16.816-.826c7.582.663,16.951,4.42,21.534,11.32,6.871,10.359-3.911,18.719-13.136,23.254a70.541,70.541,0,0,1-30.586,7.659c-9.34.048-19.987-1.451-27.819-6.88A12.578,12.578,0,0,1,84,190.568C91.25,178.2,107.768,175.107,120.654,172.868Z" transform="translate(137.844 758.278)" fill="none" stroke="#f7931e" stroke-miterlimit="10" stroke-width="2"/>
    <path id="Path_1311" data-name="Path 1311" d="M93.13,200.336s.874-13.981,1.2-17.441c.3-3.123,1.336-16.874,9.936-21.207,10.858-5.487,23.389-12.607,34.949-9.292,9.379,2.691,12.578,35.141,12.492,37.312C151.5,193.59,122.409,214.154,93.13,200.336Z" transform="translate(137.197 759.071)" fill="#68e1fd"/>
    <path id="Path_1312" data-name="Path 1312" d="M110.94,158.61c.2-.094,6.22,4.4,6.493,11.085s1.308,34.084,1.308,34.084,14.6-.856,23.657-7.152c0,0-2.061-31.788-4.922-38.017s-10.906-6.23-10.906-6.23Z" transform="translate(136.146 757.116)" fill="#68e1fd"/>
    <path id="Path_1313" data-name="Path 1313" d="M110.94,158.61c.2-.094,6.22,4.4,6.493,11.085s1.308,34.084,1.308,34.084,14.6-.856,23.657-7.152c0,0-2.061-31.788-4.922-38.017s-10.906-6.23-10.906-6.23Z" transform="translate(136.146 759.038)" fill="#4b1b13" opacity="0.47"/>
    <path id="Path_1314" data-name="Path 1314" d="M134.014,132.09a13.174,13.174,0,0,0,3.557-6.107c1.308-4.263-.875-10.455-5.5-11.029s-6.041,1.816-6.041,1.816-17.23-3.039-19.884,10.455h0c-.489,3.764-2.56,17.512,8.639,20.524s7.189-12.892,7.189-12.892" transform="translate(136.456 758.583)" fill="#4b1b13"/>
    <path id="Path_1315" data-name="Path 1315" d="M134.9,130v12.233c.047,3.482-1.421,12.9-7.152,12.6s-11.6-6.964-11.6-8.469c0,0-5.787-3.6-2.522-6.38s3.529,1.882,3.529,1.882,1.779-2.578,1.882-9.5A30.216,30.216,0,0,0,134.9,130Z" transform="translate(136.047 759.913)" fill="#ffac73"/>
    <path id="Path_1316" data-name="Path 1316" d="M116.56,156.507c2.927,2.691,7.679,3.2,12.073,2.569a1.43,1.43,0,0,0,1.317-1.242c.075-1.346.151-2.691.273-4.037l-15.1-7.387,1.167,9.627S116.381,156.215,116.56,156.507Z" transform="translate(135.9 757.35)" fill="#ffac73"/>
    <path id="Path_1317" data-name="Path 1317" d="M135.933,128.823a9.147,9.147,0,0,0-6.437.348c-3.491,1.543-6.211,2.428-9.7.489a1.327,1.327,0,0,0-.292-.16h-.056a1.43,1.43,0,0,0-2,1.788c-.169,3.416-.781,7.4-.216,10.9,0,2.4,3.143,13.965,12.845,14.642,0,0,5.1-.085,5.1-13.485a10.257,10.257,0,0,1-4.329,3.275c-1.882.574-6.446-.518-10.2-2.588h0c-1.27-3.228-.772-7.359-.471-11.019a11.236,11.236,0,0,0,5.4.7c3.5-.414,5.947-3.115,9.636-2.089a1.444,1.444,0,1,0,.725-2.795Z" transform="translate(135.789 758.053)" fill="#4b1b13"/>
  </g>
</svg>
