<svg xmlns="http://www.w3.org/2000/svg" width="112.175" height="106.249" viewBox="0 0 112.175 106.249"><g transform="translate(-53.82)"><g transform="translate(53.82 0)"><path d="M303.788,156.1l7.111-4.134-6.754-4.031-7.785,4.52C298.819,153.733,301.283,154.959,303.788,156.1Z" transform="translate(-208.496 -79.758)" fill="#f7deba"/><rect width="1.451" height="9.639" rx="0.726" transform="translate(62.39 96.61)" fill="#bc532a"/><rect width="1.451" height="9.639" rx="0.726" transform="translate(3.288 78.785)" fill="#bc532a"/><rect width="1.451" height="9.639" rx="0.726" transform="translate(36.123 38.446)" fill="#bc532a"/><path d="M254.016,196.074c-.334-1.457-1.825-7.86-4.463-5.977-1.353.967-1.727,2.47-2.3,3.95a11.758,11.758,0,0,0-.841,3.818c-.04,2.666,2.672,2.994,4.745,2.983,1.2,0,2.879-.714,3.184-2.01a6.23,6.23,0,0,0-.288-2.476Z" transform="translate(-187.308 -97.495)" fill="#2c9135"/><path d="M254.016,196.074c-.334-1.457-1.825-7.86-4.463-5.977-1.353.967-1.727,2.47-2.3,3.95a11.758,11.758,0,0,0-.841,3.818c-.04,2.666,2.672,2.994,4.745,2.983,1.2,0,2.879-.714,3.184-2.01a6.23,6.23,0,0,0-.288-2.476Z" transform="translate(-246.409 -115.319)" fill="#2c9135"/><path d="M254.016,196.074c-.334-1.457-1.825-7.86-4.463-5.977-1.353.967-1.727,2.47-2.3,3.95a11.758,11.758,0,0,0-.841,3.818c-.04,2.666,2.672,2.994,4.745,2.983,1.2,0,2.879-.714,3.184-2.01a6.23,6.23,0,0,0-.288-2.476Z" transform="translate(-213.575 -155.658)" fill="#2c9135"/><path d="M257.1,196.345l-.063-.282c-.3-1.284-1.5-6.443-3.593-6.334.622,2.718,1.543,5.591,1.054,8.378a6.362,6.362,0,0,1-1.111,2.695h.818c1.2,0,2.879-.714,3.184-2.01a6.229,6.229,0,0,0-.288-2.447Z" transform="translate(-190.269 -97.484)" fill="#156819"/><path d="M257.1,196.345l-.063-.282c-.3-1.284-1.5-6.443-3.593-6.334.622,2.718,1.543,5.591,1.054,8.378a6.362,6.362,0,0,1-1.111,2.695h.818c1.2,0,2.879-.714,3.184-2.01a6.229,6.229,0,0,0-.288-2.447Z" transform="translate(-249.37 -115.308)" fill="#156819"/><path d="M257.1,196.345l-.063-.282c-.3-1.284-1.5-6.443-3.593-6.334.622,2.718,1.543,5.591,1.054,8.378a6.362,6.362,0,0,1-1.111,2.695h.818c1.2,0,2.879-.714,3.184-2.01a6.229,6.229,0,0,0-.288-2.447Z" transform="translate(-216.536 -155.647)" fill="#156819"/><rect width="1.451" height="9.639" rx="0.726" transform="translate(66.351 69.547)" fill="#bc532a"/><path d="M260.886,149.084c-.334-1.457-1.825-7.86-4.463-5.977-1.353.967-1.727,2.47-2.3,3.95a11.758,11.758,0,0,0-.841,3.818c-.04,2.666,2.672,2.994,4.745,2.983,1.2,0,2.879-.714,3.184-2.01a6.23,6.23,0,0,0-.288-2.476Z" transform="translate(-190.222 -77.562)" fill="#2c9135"/><path d="M263.974,149.355l-.063-.282c-.3-1.284-1.5-6.443-3.593-6.334.622,2.718,1.543,5.591,1.054,8.378a6.363,6.363,0,0,1-1.111,2.695h.818c1.2,0,2.879-.714,3.184-2.01A6.229,6.229,0,0,0,263.974,149.355Z" transform="translate(-193.183 -77.551)" fill="#156819"/><rect width="1.451" height="9.639" rx="0.726" transform="translate(48.415 80.297)" fill="#bc532a"/><rect width="1.451" height="9.639" rx="0.726" transform="translate(107.517 58.72)" fill="#bc532a"/><rect width="1.451" height="9.639" rx="0.726" transform="translate(22.148 22.133)" fill="#bc532a"/><path d="M229.736,167.744c-.334-1.457-1.825-7.86-4.463-5.977-1.353.967-1.727,2.47-2.3,3.95a11.759,11.759,0,0,0-.841,3.818c-.04,2.666,2.672,2.994,4.745,2.983,1.2,0,2.879-.714,3.184-2.01a6.23,6.23,0,0,0-.288-2.476Z" transform="translate(-177.008 -85.478)" fill="#2c9135"/><path d="M229.736,167.744c-.334-1.457-1.825-7.86-4.463-5.977-1.353.967-1.727,2.47-2.3,3.95a11.759,11.759,0,0,0-.841,3.818c-.04,2.666,2.672,2.994,4.745,2.983,1.2,0,2.879-.714,3.184-2.01a6.23,6.23,0,0,0-.288-2.476Z" transform="translate(-117.907 -107.054)" fill="#2c9135"/><path d="M229.736,167.744c-.334-1.457-1.825-7.86-4.463-5.977-1.353.967-1.727,2.47-2.3,3.95a11.759,11.759,0,0,0-.841,3.818c-.04,2.666,2.672,2.994,4.745,2.983,1.2,0,2.879-.714,3.184-2.01a6.23,6.23,0,0,0-.288-2.476Z" transform="translate(-203.276 -143.641)" fill="#2c9135"/><path d="M232.824,168.015l-.063-.282c-.3-1.284-1.5-6.443-3.593-6.334.622,2.718,1.543,5.591,1.054,8.378a6.363,6.363,0,0,1-1.111,2.695h.818c1.2,0,2.879-.714,3.184-2.01A6.23,6.23,0,0,0,232.824,168.015Z" transform="translate(-179.969 -85.466)" fill="#156819"/><path d="M232.824,168.015l-.063-.282c-.3-1.284-1.5-6.443-3.593-6.334.622,2.718,1.543,5.591,1.054,8.378a6.363,6.363,0,0,1-1.111,2.695h.818c1.2,0,2.879-.714,3.184-2.01A6.23,6.23,0,0,0,232.824,168.015Z" transform="translate(-206.237 -143.63)" fill="#156819"/><path d="M273.04,172.556V149.57l13.353,7.457V180.3Z" transform="translate(-198.604 -80.45)" fill="#68e1fd"/><path d="M273.04,172.556V149.57l13.353,7.457V180.3Z" transform="translate(-198.604 -80.45)" fill="#1e4549" opacity="0.33"/><path d="M296.23,157.027l13.555-7.457v22.779L296.23,180.3Z" transform="translate(-208.441 -80.45)" fill="#68e1fd"/><path d="M273.04,143.534l13.353-8.194,13.555,8.194-13.555,7.457Z" transform="translate(-198.604 -74.413)" fill="#ccc"/><path d="M299.948,149.57l-13.555,7.457L273.04,149.57v1.808l13.353,7.347,13.555-7.474Z" transform="translate(-198.604 -80.45)" fill="#1e4549"/><path d="M315.724,161.162V158.3l-1.7.933v2.747Z" transform="translate(-215.987 -84.153)" fill="#e0e0e0"/><path d="M308.364,165.132V162.27l-1.7.939v2.747Z" transform="translate(-212.865 -85.837)" fill="#e0e0e0"/><path d="M300.729,169.826V166.97l-1.7.933v2.747Z" transform="translate(-209.629 -87.83)" fill="#e0e0e0"/><path d="M315.724,178.972V176.11l-1.7.933v2.747Z" transform="translate(-215.987 -91.708)" fill="#e0e0e0"/><path d="M308.364,182.942V180.08l-1.7.933v2.747Z" transform="translate(-212.865 -93.392)" fill="#e0e0e0"/><path d="M300.729,187.632V184.77l-1.7.933v2.747Z" transform="translate(-209.629 -95.381)" fill="#e0e0e0"/><path d="M274.39,161.216V158.36l1.7.933v2.747Z" transform="translate(-199.177 -84.178)" fill="#e0e0e0"/><path d="M281.75,165.192V162.33l1.7.933v2.747Z" transform="translate(-202.299 -85.862)" fill="#e0e0e0"/><path d="M289.39,169.882V167.02l1.7.933V170.7Z" transform="translate(-205.54 -87.852)" fill="#e0e0e0"/><path d="M274.39,179.022V176.16l1.7.933v2.747Z" transform="translate(-199.177 -91.729)" fill="#e0e0e0"/><path d="M281.75,182.992V180.13l1.7.933v2.752Z" transform="translate(-202.299 -93.413)" fill="#e0e0e0"/><path d="M289.39,187.682V184.82l1.7.933v2.752Z" transform="translate(-205.54 -95.402)" fill="#e0e0e0"/><path d="M278.97,137.471V120.68l9.754,5.447v16.992Z" transform="translate(-201.12 -68.195)" fill="#68e1fd"/><path d="M278.97,137.471V120.68l9.754,5.447v16.992Z" transform="translate(-201.12 -68.195)" fill="#1e4549" opacity="0.33"/><path d="M295.91,126.127l9.9-5.447v16.635l-9.9,5.8Z" transform="translate(-208.305 -68.195)" fill="#68e1fd"/><path d="M278.97,116.273l9.754-5.983,9.9,5.983-9.9,5.447Z" transform="translate(-201.12 -63.787)" fill="#ccc"/><path d="M298.622,120.68l-9.9,5.447-9.754-5.447V122l9.754,5.367,9.9-5.459Z" transform="translate(-201.12 -68.195)" fill="#1e4549"/><path d="M310.144,129.15v-2.09l-1.244.679v2.01Z" transform="translate(-213.816 -70.901)" fill="#e0e0e0"/><path d="M304.774,132.05v-2.09l-1.244.679v2.01Z" transform="translate(-211.538 -72.131)" fill="#e0e0e0"/><path d="M299.194,135.474V133.39l-1.244.679v2.01Z" transform="translate(-209.171 -73.586)" fill="#e0e0e0"/><path d="M310.144,142.15v-2.09l-1.244.685v2Z" transform="translate(-213.816 -76.416)" fill="#e0e0e0"/><path d="M304.774,145.05v-2.09l-1.244.685v2Z" transform="translate(-211.538 -77.646)" fill="#e0e0e0"/><path d="M299.194,148.48v-2.09l-1.244.679v2.01Z" transform="translate(-209.171 -79.101)" fill="#e0e0e0"/><path d="M279.96,129.19V127.1l1.238.679v2.01Z" transform="translate(-201.54 -70.918)" fill="#e0e0e0"/><path d="M285.33,132.09V130l1.244.679v2.01Z" transform="translate(-203.817 -72.148)" fill="#e0e0e0"/><path d="M290.91,135.514V133.43l1.244.679v2Z" transform="translate(-206.184 -73.603)" fill="#e0e0e0"/><path d="M279.96,142.19V140.1l1.238.685v2Z" transform="translate(-201.54 -76.432)" fill="#e0e0e0"/><path d="M285.33,145.09V143l1.244.685v2Z" transform="translate(-203.817 -77.663)" fill="#e0e0e0"/><path d="M290.91,148.52v-2.09l1.244.679v2.01Z" transform="translate(-206.184 -79.118)" fill="#e0e0e0"/><path d="M283.12,111.758V99.05l7.382,4.123v12.864Z" transform="translate(-202.88 -59.02)" fill="#68e1fd"/><path d="M283.12,111.758V99.05l7.382,4.123v12.864Z" transform="translate(-202.88 -59.02)" fill="#1e4549" opacity="0.33"/><path d="M295.94,103.173l7.5-4.123v12.593l-7.5,4.393Z" transform="translate(-208.318 -59.02)" fill="#68e1fd"/><path d="M283.12,95.712,290.5,91.18l7.5,4.532-7.5,4.123Z" transform="translate(-202.88 -55.681)" fill="#ccc"/><path d="M298,99.05l-7.5,4.123L283.12,99.05v1l7.382,4.065,7.5-4.134Z" transform="translate(-202.88 -59.02)" fill="#1e4549"/><path d="M306.719,105.458V103.88l-.939.512v1.52Z" transform="translate(-212.492 -61.068)" fill="#e0e0e0"/><path d="M302.649,107.653V106.07l-.939.518v1.52Z" transform="translate(-210.766 -61.997)" fill="#e0e0e0"/><path d="M298.429,110.248V108.67l-.939.512v1.52Z" transform="translate(-208.976 -63.1)" fill="#e0e0e0"/><path d="M306.719,115.3V113.72l-.939.518v1.52Z" transform="translate(-212.492 -65.242)" fill="#e0e0e0"/><path d="M302.649,117.5V115.92l-.939.512v1.52Z" transform="translate(-210.766 -66.176)" fill="#e0e0e0"/><path d="M298.429,120.093V118.51l-.939.518v1.52Z" transform="translate(-208.976 -67.274)" fill="#e0e0e0"/><path d="M283.86,105.488V103.91l.944.512v1.52Z" transform="translate(-203.194 -61.081)" fill="#e0e0e0"/><path d="M287.93,107.683V106.1l.939.518v1.52Z" transform="translate(-204.92 -62.01)" fill="#e0e0e0"/><path d="M292.15,110.278V108.7l.944.512v1.52Z" transform="translate(-206.71 -63.113)" fill="#e0e0e0"/><path d="M283.86,115.333V113.75l.944.518v1.52Z" transform="translate(-203.194 -65.255)" fill="#e0e0e0"/><path d="M287.93,117.528V115.95l.939.512v1.52Z" transform="translate(-204.92 -66.188)" fill="#e0e0e0"/><path d="M292.15,120.123V118.54l.944.518v1.52Z" transform="translate(-206.71 -67.287)" fill="#e0e0e0"/><path d="M291.612,95.52V84.13l-5.9,8.1" transform="translate(-203.979 -52.691)" fill="#39726f"/><path d="M295.96,84.13l5.989,8.1L295.96,95.52Z" transform="translate(-208.326 -52.691)" fill="#2e5b5a"/><rect width="1.451" height="9.639" rx="0.726" transform="translate(72.161 90.823)" fill="#bc532a"/><rect width="1.451" height="9.639" rx="0.726" transform="translate(13.06 72.998)" fill="#bc532a"/><rect width="1.451" height="9.639" rx="0.726" transform="translate(45.894 32.659)" fill="#bc532a"/><path d="M270.986,186.034c-.334-1.457-1.825-7.86-4.463-5.977-1.353.967-1.727,2.47-2.3,3.95a11.757,11.757,0,0,0-.841,3.818c-.04,2.666,2.672,2.994,4.745,2.983,1.2,0,2.879-.714,3.184-2.01a6.23,6.23,0,0,0-.288-2.476Z" transform="translate(-194.506 -93.236)" fill="#2c9135"/><path d="M270.986,186.034c-.334-1.457-1.825-7.86-4.463-5.977-1.353.967-1.727,2.47-2.3,3.95a11.757,11.757,0,0,0-.841,3.818c-.04,2.666,2.672,2.994,4.745,2.983,1.2,0,2.879-.714,3.184-2.01a6.23,6.23,0,0,0-.288-2.476Z" transform="translate(-253.608 -111.06)" fill="#2c9135"/><path d="M270.986,186.034c-.334-1.457-1.825-7.86-4.463-5.977-1.353.967-1.727,2.47-2.3,3.95a11.757,11.757,0,0,0-.841,3.818c-.04,2.666,2.672,2.994,4.745,2.983,1.2,0,2.879-.714,3.184-2.01a6.23,6.23,0,0,0-.288-2.476Z" transform="translate(-220.773 -151.4)" fill="#2c9135"/><path d="M274.064,186.3l-.063-.282c-.3-1.284-1.5-6.443-3.593-6.334.622,2.718,1.543,5.591,1.054,8.378a6.362,6.362,0,0,1-1.111,2.695h.818c1.2,0,2.879-.714,3.184-2.01A6.231,6.231,0,0,0,274.064,186.3Z" transform="translate(-197.463 -93.225)" fill="#156819"/><path d="M274.064,186.3l-.063-.282c-.3-1.284-1.5-6.443-3.593-6.334.622,2.718,1.543,5.591,1.054,8.378a6.362,6.362,0,0,1-1.111,2.695h.818c1.2,0,2.879-.714,3.184-2.01A6.231,6.231,0,0,0,274.064,186.3Z" transform="translate(-256.565 -111.049)" fill="#156819"/><path d="M274.064,186.3l-.063-.282c-.3-1.284-1.5-6.443-3.593-6.334.622,2.718,1.543,5.591,1.054,8.378a6.362,6.362,0,0,1-1.111,2.695h.818c1.2,0,2.879-.714,3.184-2.01A6.231,6.231,0,0,0,274.064,186.3Z" transform="translate(-223.73 -151.388)" fill="#156819"/><path d="M199.55,105.261V43.81l13.4,7.486v61.687Z" transform="translate(-167.43 -35.587)" fill="#68e1fd"/><path d="M199.55,105.261V43.81l13.4,7.486v61.687Z" transform="translate(-167.43 -35.587)" fill="#1e4549" opacity="0.33"/><path d="M222.82,51.3l13.612-7.486V105l-13.612,7.987Z" transform="translate(-177.301 -35.587)" fill="#68e1fd"/><path d="M199.55,37.753l13.4-8.223,13.612,8.223-13.612,7.486Z" transform="translate(-167.43 -29.53)" fill="#ccc"/><path d="M226.561,43.81,212.949,51.3l-13.4-7.486v1.814L212.949,53l13.612-7.5Z" transform="translate(-167.43 -35.587)" fill="#1e4549"/><path d="M242.39,55.448V52.58l-1.71.933v2.758Z" transform="translate(-184.877 -39.308)" fill="#e0e0e0"/><path d="M235,59.433V56.56l-1.7.939v2.758Z" transform="translate(-181.747 -40.996)" fill="#e0e0e0"/><path d="M227.334,64.138V61.27l-1.7.939v2.752Z" transform="translate(-178.493 -42.994)" fill="#e0e0e0"/><path d="M242.39,73.313V70.44l-1.71.939v2.758Z" transform="translate(-184.877 -46.884)" fill="#e0e0e0"/><path d="M235,77.3V74.43l-1.7.939v2.758Z" transform="translate(-181.747 -48.576)" fill="#e0e0e0"/><path d="M227.334,82.008V79.14l-1.7.939v2.752Z" transform="translate(-178.493 -50.574)" fill="#e0e0e0"/><path d="M242.39,93.763V90.89l-1.71.939v2.758Z" transform="translate(-184.877 -55.558)" fill="#e0e0e0"/><path d="M235,97.748V94.88l-1.7.933v2.758Z" transform="translate(-181.747 -57.251)" fill="#e0e0e0"/><path d="M227.334,102.453V99.58l-1.7.939v2.758Z" transform="translate(-178.493 -59.244)" fill="#e0e0e0"/><path d="M242.39,114.008V111.14l-1.71.933v2.758Z" transform="translate(-184.877 -64.148)" fill="#e0e0e0"/><path d="M235,117.993V115.12l-1.7.939v2.758Z" transform="translate(-181.747 -65.836)" fill="#e0e0e0"/><path d="M227.334,122.7V119.83l-1.7.933v2.758Z" transform="translate(-178.493 -67.834)" fill="#e0e0e0"/><path d="M242.39,134.248V131.38l-1.71.933v2.758Z" transform="translate(-184.877 -72.734)" fill="#e0e0e0"/><path d="M235,138.238V135.37l-1.7.933v2.758Z" transform="translate(-181.747 -74.426)" fill="#e0e0e0"/><path d="M227.334,142.943V140.07l-1.7.939v2.758Z" transform="translate(-178.493 -76.42)" fill="#e0e0e0"/><path d="M200.91,55.5V52.63l1.7.939v2.752Z" transform="translate(-168.007 -39.329)" fill="#e0e0e0"/><path d="M208.29,59.483V56.61l1.7.939v2.758Z" transform="translate(-171.138 -41.017)" fill="#e0e0e0"/><path d="M215.96,64.193V61.32l1.7.939v2.758Z" transform="translate(-174.391 -43.015)" fill="#e0e0e0"/><path d="M200.91,73.368V70.5l1.7.939v2.752Z" transform="translate(-168.007 -46.909)" fill="#e0e0e0"/><path d="M208.29,77.353V74.48l1.7.939v2.758Z" transform="translate(-171.138 -48.597)" fill="#e0e0e0"/><path d="M215.96,82.063V79.19l1.7.939v2.758Z" transform="translate(-174.391 -50.595)" fill="#e0e0e0"/><path d="M200.91,93.813V90.94l1.7.939v2.758Z" transform="translate(-168.007 -55.579)" fill="#e0e0e0"/><path d="M208.29,97.8V94.93l1.7.939v2.758Z" transform="translate(-171.138 -57.272)" fill="#e0e0e0"/><path d="M215.96,102.513V99.64l1.7.939v2.758Z" transform="translate(-174.391 -59.27)" fill="#e0e0e0"/><path d="M200.91,114.058V111.19l1.7.933v2.758Z" transform="translate(-168.007 -64.169)" fill="#e0e0e0"/><path d="M208.29,118.043V115.17l1.7.939v2.758Z" transform="translate(-171.138 -65.858)" fill="#e0e0e0"/><path d="M215.96,122.753V119.88l1.7.939v2.758Z" transform="translate(-174.391 -67.855)" fill="#e0e0e0"/><path d="M200.91,134.3V131.43l1.7.939v2.758Z" transform="translate(-168.007 -72.755)" fill="#e0e0e0"/><path d="M208.29,138.287V135.42l1.7.933v2.758Z" transform="translate(-171.138 -74.447)" fill="#e0e0e0"/><path d="M215.96,143V140.13l1.7.933v2.758Z" transform="translate(-174.391 -76.445)" fill="#e0e0e0"/><path d="M226.561,80.81l-13.727,7.1L199.55,80.937v2.839l13.4,6.967,13.612-6.967Z" transform="translate(-167.43 -51.282)" fill="#2e5b5a"/><path d="M226.561,101.29l-13.727,7.1-13.284-6.973v2.839l13.4,6.967,13.612-6.967Z" transform="translate(-167.43 -59.97)" fill="#2e5b5a"/><path d="M226.561,121.54l-13.727,7.094-13.284-6.973V124.5l13.4,6.967,13.612-6.967Z" transform="translate(-167.43 -68.56)" fill="#2e5b5a"/><path d="M226.376,140.13l-13.722,7.094-13.284-6.973v2.839l13.4,6.967,13.606-6.967Z" transform="translate(-167.354 -76.445)" fill="#2e5b5a"/><path d="M226.561,61.27l-13.727,7.094L199.55,61.391V64.23l13.4,6.967,13.612-6.967Z" transform="translate(-167.43 -42.994)" fill="#2e5b5a"/><path d="M169.72,140.252V94.06L179.8,99.686v46.376Z" transform="translate(-154.777 -56.903)" fill="#68e1fd"/><path d="M169.72,140.252V94.06L179.8,99.686v46.376Z" transform="translate(-154.777 -56.903)" fill="#1e4549" opacity="0.33"/><path d="M187.22,99.686l10.232-5.626v46l-10.232,6.006Z" transform="translate(-162.2 -56.903)" fill="#68e1fd"/><path d="M169.72,89.5,179.8,83.32,190.029,89.5,179.8,95.13Z" transform="translate(-154.777 -52.347)" fill="#ccc"/><path d="M190.029,94.06,179.8,99.686,169.72,94.06v1.359l10.077,5.545,10.232-5.637Z" transform="translate(-154.777 -56.903)" fill="#1e4549"/><path d="M201.924,102.8V100.64l-1.284.708v2.073Z" transform="translate(-167.893 -59.694)" fill="#e0e0e0"/><path d="M196.374,105.8V103.64l-1.284.7v2.073Z" transform="translate(-165.539 -60.967)" fill="#e0e0e0"/><path d="M190.614,109.339V107.18l-1.284.7v2.073Z" transform="translate(-163.095 -62.468)" fill="#e0e0e0"/><path d="M201.924,116.239V114.08l-1.284.7v2.073Z" transform="translate(-167.893 -65.395)" fill="#e0e0e0"/><path d="M196.374,119.234V117.08l-1.284.7v2.073Z" transform="translate(-165.539 -66.668)" fill="#e0e0e0"/><path d="M190.614,122.769V120.61l-1.284.708v2.073Z" transform="translate(-163.095 -68.165)" fill="#e0e0e0"/><path d="M201.924,131.609V129.45l-1.284.7v2.073Z" transform="translate(-167.893 -71.915)" fill="#e0e0e0"/><path d="M196.374,134.6V132.45l-1.284.7v2.073Z" transform="translate(-165.539 -73.187)" fill="#e0e0e0"/><path d="M190.614,138.149V135.99l-1.284.7v2.073Z" transform="translate(-163.095 -74.689)" fill="#e0e0e0"/><path d="M201.924,146.829V144.67l-1.284.7v2.073Z" transform="translate(-167.893 -78.371)" fill="#e0e0e0"/><path d="M196.374,149.824V147.67l-1.284.7v2.073Z" transform="translate(-165.539 -79.644)" fill="#e0e0e0"/><path d="M190.614,153.364V151.21l-1.284.7v2.073Z" transform="translate(-163.095 -81.145)" fill="#e0e0e0"/><path d="M201.924,162.049V159.89l-1.284.7v2.073Z" transform="translate(-167.893 -84.827)" fill="#e0e0e0"/><path d="M196.374,165.039V162.88l-1.284.708v2.073Z" transform="translate(-165.539 -86.096)" fill="#e0e0e0"/><path d="M190.614,168.583V166.43l-1.284.7v2.073Z" transform="translate(-163.095 -87.601)" fill="#e0e0e0"/><path d="M170.74,102.839V100.68l1.284.708v2.073Z" transform="translate(-155.21 -59.711)" fill="#e0e0e0"/><path d="M176.29,105.839V103.68l1.284.7v2.073Z" transform="translate(-157.564 -60.984)" fill="#e0e0e0"/><path d="M182.06,109.379V107.22l1.278.7V110Z" transform="translate(-160.011 -62.485)" fill="#e0e0e0"/><path d="M170.74,116.279V114.12l1.284.7V116.9Z" transform="translate(-155.21 -65.412)" fill="#e0e0e0"/><path d="M176.29,119.274V117.12l1.284.7V119.9Z" transform="translate(-157.564 -66.685)" fill="#e0e0e0"/><path d="M182.06,122.814V120.66l1.278.7v2.073Z" transform="translate(-160.011 -68.186)" fill="#e0e0e0"/><path d="M170.74,131.649V129.49l1.284.7v2.073Z" transform="translate(-155.21 -71.932)" fill="#e0e0e0"/><path d="M176.29,134.649V132.49l1.284.7v2.073Z" transform="translate(-157.564 -73.204)" fill="#e0e0e0"/><path d="M182.06,138.189V136.03l1.278.7v2.073Z" transform="translate(-160.011 -74.706)" fill="#e0e0e0"/><path d="M170.74,146.869V144.71l1.284.7v2.073Z" transform="translate(-155.21 -78.388)" fill="#e0e0e0"/><path d="M176.29,149.869V147.71l1.284.7v2.073Z" transform="translate(-157.564 -79.661)" fill="#e0e0e0"/><path d="M182.06,153.4V151.25l1.278.7v2.073Z" transform="translate(-160.011 -81.162)" fill="#e0e0e0"/><path d="M170.74,162.089V159.93l1.284.7v2.073Z" transform="translate(-155.21 -84.844)" fill="#e0e0e0"/><path d="M176.29,165.084V162.93l1.284.7v2.073Z" transform="translate(-157.564 -86.117)" fill="#e0e0e0"/><path d="M182.06,168.624V166.47l1.278.7v2.073Z" transform="translate(-160.011 -87.618)" fill="#e0e0e0"/><path d="M190.029,121.87,179.7,127.208l-9.985-5.246V124.1l10.077,5.24,10.232-5.24Z" transform="translate(-154.777 -68.7)" fill="#2e5b5a"/><path d="M190.029,137.27,179.7,142.6l-9.985-5.24V139.5l10.077,5.234,10.232-5.234Z" transform="translate(-154.777 -75.232)" fill="#2e5b5a"/><path d="M190.029,152.49,179.7,157.822l-9.985-5.24v2.136l10.077,5.234,10.232-5.234Z" transform="translate(-154.777 -81.688)" fill="#2e5b5a"/><path d="M189.893,166.47,179.575,171.8l-9.985-5.24v2.13l10.071,5.24,10.232-5.24Z" transform="translate(-154.722 -87.618)" fill="#2e5b5a"/><path d="M190.029,107.18,179.7,112.512l-9.985-5.24v2.136l10.077,5.234,10.232-5.234Z" transform="translate(-154.777 -62.468)" fill="#2e5b5a"/></g></g></svg>