<svg xmlns="http://www.w3.org/2000/svg" width="53" height="49" viewBox="0 0 53 49">
  <g id="twitter" transform="translate(-4 0.414)">
    <rect id="Rectangle_52" data-name="Rectangle 52" width="53" height="49" rx="10" transform="translate(4 -0.414)" fill="#fff"/>
    <path id="Icon_simple-twitter" data-name="Icon simple-twitter" d="M27.821,6.067a11.615,11.615,0,0,1-3.281.9A5.759,5.759,0,0,0,27.053,3.8,11.8,11.8,0,0,1,23.421,5.18a5.713,5.713,0,0,0-9.885,3.9,5.848,5.848,0,0,0,.148,1.305A16.185,16.185,0,0,1,1.9,4.432a5.6,5.6,0,0,0-.774,2.875,5.715,5.715,0,0,0,2.541,4.757,5.7,5.7,0,0,1-2.588-.715v.071a5.718,5.718,0,0,0,4.583,5.606,5.767,5.767,0,0,1-2.569.1,5.734,5.734,0,0,0,5.347,3.969,11.461,11.461,0,0,1-7.087,2.445A12.129,12.129,0,0,1,0,23.46a16.255,16.255,0,0,0,8.777,2.566c10.516,0,16.259-8.706,16.259-16.244,0-.243,0-.488-.017-.732A11.54,11.54,0,0,0,27.876,6.09l-.055-.023Z" transform="translate(17.014 9.217)"/>
  </g>
</svg>
